<?xml version="1.0" encoding="utf-8"?>
<!-- Generator: Adobe Illustrator 24.2.0, SVG Export Plug-In . SVG Version: 6.00 Build 0)  -->
<svg version="1.1" id="logo-cs4all" xmlns="http://www.w3.org/2000/svg" xmlns:xlink="http://www.w3.org/1999/xlink" x="0px"
	 y="0px" viewBox="0 0 1280 168" style="enable-background:new 0 0 1280 168;" xml:space="preserve">
<style type="text/css">
	.st0{fill:#F26922;}
	.st1{fill:#5694CF;}
	.st2{fill:#0A55A3;}
	.st3{fill:#88B8E3;}
	.st4{fill:#A1CD3A;}
	.st5{fill:#1D8743;}
	.st6{fill:#003366;}
	.st7{fill:#A1CC3A;}
	.st8{fill:#F26A23;}
</style>
<path class="st0" d="M331.3,40.3v-0.2c0-22,16.6-40.1,40.4-40.1c14.6,0,23.3,4.9,30.5,11.9l-10.9,12.5c-6-5.4-12-8.7-19.8-8.7
	c-13,0-22.5,10.9-22.5,24.1v0.2c0,13.3,9.2,24.4,22.5,24.4c8.9,0,14.3-3.6,20.3-9.1l10.9,11c-8,8.5-16.8,13.8-31.8,13.8
	C348.2,80.1,331.3,62.5,331.3,40.3z M489.8,40.1c0,22-17.4,40.1-41.3,40.1s-41.1-17.8-41.1-39.9v-0.2c0-22,17.4-40.1,41.3-40.1
	s41.1,17.8,41.1,39.9V40.1z M472,40.1c0-13.3-9.8-24.4-23.5-24.4c-13.7,0-23.2,10.9-23.2,24.1v0.2c0,13.3,9.8,24.4,23.5,24.4
	S472,53.6,472,40.3V40.1z M518.3,28.5l21.6,32.8h0.4l21.8-33.1v50.6h16.9V1.3h-18.4l-20.3,32.8L520,1.3h-18.4v77.5h16.7L518.3,28.5z
	 M655.7,28.1v0.2c0,17.9-13.9,27.2-31.3,27.2h-13v23.3h-17.1V1.3H626C644.5,1.3,655.7,12.3,655.7,28.1L655.7,28.1z M638.4,28.5
	c0-7.6-5.3-11.7-13.8-11.7h-13.2v23.7h13.5c8.5,0,13.5-5.1,13.5-11.7L638.4,28.5z M714.2,45.7c0,12.3-6.3,18.6-16.7,18.6
	s-16.7-6.5-16.7-19.1V1.3h-17.1v44.3c0,22.8,12.7,34.4,33.5,34.4s34-11.5,34-35V1.3h-17.1V45.7z M739.8,17.1h23.6v61.8h17.1V17.1
	h23.6V1.3h-64.2L739.8,17.1z M830.6,47.4h36.5V32.2h-36.5V16.5h41.5V1.3h-58.4v77.5h59V63.6h-42L830.6,47.4z M951.5,78.8h-19.9
	L915,54h-13.4v24.8h-17.1V1.3h35.4c18.3,0,29.2,9.6,29.2,25.6v0.2c0,12.5-6.8,20.3-16.6,24L951.5,78.8z M931.9,27.8
	c0-7.3-5.1-11-13.4-11h-16.9V39h17.3c8.3,0,13-4.4,13-11V27.8z M366.9,121.8c-13-3.3-16.2-4.9-16.2-9.8v-0.2c0-3.7,3.3-6.5,9.6-6.5
	c6.3,0,12.8,2.8,19.5,7.4l8.5-12.4c-7.6-6.1-16.9-9.5-27.8-9.5c-15.3,0-26.2,9-26.2,22.6v0.2c0,14.9,9.8,19.1,24.8,22.9
	c12.5,3.2,15.1,5.3,15.1,9.5v0.2c0,4.4-4.1,7.1-10.8,7.1c-8.5,0-15.6-3.5-22.4-9.1l-9.8,11.7c8.8,7.7,20.1,12,31.8,12
	c16.2,0,27.5-8.4,27.5-23.2v-0.2C390.6,131.2,382.1,125.7,366.9,121.8z M437.4,152.7c-12.8,0-21.7-10.7-21.7-23.6V129
	c0-12.9,9.1-23.3,21.7-23.3c7.5,0,13.4,3.2,19.1,8.5l10.5-12.1c-6.9-6.9-15.4-11.6-29.6-11.6c-23,0-39.1,17.5-39.1,38.7v0.2
	c0,21.5,16.4,38.6,38.4,38.6c14.5,0,23-5.1,30.7-13.4l-10.5-10.6C451.2,149.3,446,152.7,437.4,152.7z M478.3,166.7h16.5v-75h-16.5
	V166.7z M526.7,136.3H562v-14.7h-35.3v-15.2h40.2V91.7h-56.5v74.9h57.1V152h-40.7L526.7,136.3z M629.2,137.9L594,91.7h-15.2v74.9
	h16.3V119l36.3,47.6h14V91.7h-16.3V137.9z M695.9,152.7c-12.9,0-21.7-10.7-21.7-23.6V129c0-12.9,9.1-23.3,21.7-23.3
	c7.5,0,13.4,3.2,19.1,8.5l10.5-12.1c-6.9-6.9-15.4-11.6-29.6-11.6c-23,0-39.1,17.5-39.1,38.7v0.2c0,21.5,16.4,38.6,38.4,38.6
	c14.5,0,23-5.1,30.7-13.4L715.5,144C709.7,149.3,704.4,152.7,695.9,152.7z M752.4,136.3h35.3v-14.7h-35.3v-15.2h40.2V91.7H736v74.9
	h57.1V152h-40.7L752.4,136.3z"/>
<path class="st1" d="M841.4,106.9v15.9h35.7v15h-35.7v28.9H825V91.9h56.9v15H841.4z"/>
<path class="st1" d="M928.1,168c-23.1,0-39.6-17.2-39.6-38.4v-0.2c0-21.2,16.8-38.6,39.9-38.6s39.6,17.2,39.6,38.4v0.2
	C968,150.5,951.2,168,928.1,168z M950.8,129.3c0-12.8-9.4-23.5-22.6-23.5c-13.2,0-22.4,10.5-22.4,23.3v0.2
	c0,12.8,9.4,23.5,22.6,23.5s22.4-10.5,22.4-23.3L950.8,129.3z"/>
<path class="st1" d="M1024.8,166.7l-16-23.9h-12.9v23.9h-16.4V91.9h34.2c17.6,0,28.2,9.3,28.2,24.7v0.2c0,12.1-6.5,19.6-16,23.2
	l18.3,26.7H1024.8z M1025.1,117.5c0-7-4.9-10.7-12.9-10.7h-16.3v21.5h16.7c8,0,12.6-4.3,12.6-10.6V117.5z"/>
<polygon class="st2" points="824.9,91.8 824.9,107 881.9,107 881.9,91.8 "/>
<path class="st3" d="M950.5,129.2h17.2V129c0-21.2-16.6-38.4-39.6-38.4c-23.1,0-39.9,17.4-39.9,38.6h17.2V129
	c0-12.8,9.2-23.3,22.4-23.3C941.1,105.7,950.5,116.3,950.5,129.2L950.5,129.2z"/>
<polygon class="st3" points="979.4,106.8 979.4,166.4 996.1,166.4 996.1,106.8 "/>
<path class="st4" d="M1137.8,166.7l-6.9-16.8h-31.6l-6.9,16.8h-16.7l32.1-75.3h15.2l32,75.3H1137.8z M1115.2,111.1l-9.9,24.2h19.9
	L1115.2,111.1z"/>
<path class="st4" d="M1163.4,166.7V91.9h16.4v59.8h37.3v15L1163.4,166.7z"/>
<path class="st4" d="M1226.3,166.7V91.9h16.5v59.8h37.3v15L1226.3,166.7z"/>
<polygon class="st5" points="1163.7,151.7 1163.7,166.8 1217.1,166.8 1217.1,151.7 "/>
<polygon class="st5" points="1226.4,91.5 1226.4,166.4 1242.9,166.4 1242.9,91.5 "/>
<polygon class="st5" points="1105.2,135.4 1099.4,149.9 1130.9,149.9 1125.2,135.4 "/>
<path class="st6" d="M307.3,167.9h-4V0h4V167.9z M0.3,129.8h10.3c7.3,0,11.8-4.2,11.8-12.1c0-7.4-4.4-11.9-11.8-11.9H0.3V129.8z
	 M6.5,111.1h2.9c4.3,0,6.6,2.1,6.6,6.5c0,4.8-1.9,6.7-6.6,6.8H6.5L6.5,111.1z M42.6,122.4c0.3-5.9-2.8-10.6-9.1-10.6
	c-5.1,0-9.4,3.8-9.4,9.2c0,5.8,3.9,9.3,9.6,9.3c3.9,0,7.6-1.7,8.7-5.8H37c-0.5,1.3-1.9,1.9-3.3,1.9c-2.4,0-3.8-1.6-3.9-4L42.6,122.4
	z M29.7,119.2c0.4-2.1,1.7-3.6,3.7-3.6c1.9,0,3.3,1.6,3.4,3.6H29.7z M44.7,135.6h5.7v-7.7h0.1c1.2,1.6,3,2.5,5,2.4
	c4.9,0,7.3-4.3,7.3-8.9c0-4.9-2.3-9.6-7.8-9.6c-1.9,0-3.7,0.9-4.8,2.5h-0.1v-2h-5.4V135.6z M53.7,116.2c2.5,0,3.4,2.4,3.4,4.7
	c0,2.4-0.9,5-3.4,5c-2.5,0-3.5-2-3.5-5C50.3,117.3,52.2,116.2,53.7,116.2z M70.3,117.7c0.3-1.5,1.3-2.2,2.8-2.2
	c1.2,0,2.8,0.5,2.8,1.8c0,1.1-0.5,1.4-1.5,1.6c-4,0.8-10.2,0.4-10.2,6.1c0,3.6,2.6,5.3,6,5.3c2.1,0,4.3-0.6,5.7-2.1
	c0,0.6,0.2,1.1,0.4,1.6h5.7c-0.7-1.4-0.7-3-0.7-4.5v-7.7c0-4.9-4-5.8-8.1-5.8c-2,0-4,0.4-5.6,1.2c-1.7,0.9-2.7,2.8-2.7,4.7
	L70.3,117.7z M70,124.8c0-1.4,1.1-1.9,2.4-2.2c1.3-0.3,2.7-0.4,3.5-0.9c0.1,3.6-0.8,5.2-3.5,5.2C71.1,126.8,70,126.2,70,124.8
	L70,124.8z M84.6,129.8h5.7v-8.6c0-2.2,1.5-4.1,4.3-4.1c0.8,0,1.5,0.1,2.2,0.4v-5.2c-0.4-0.1-0.9-0.1-1.3-0.1
	c-2.4,0-4.4,1.2-5.3,3.4h0v-3.1h-5.6L84.6,129.8z M109.4,112.3h-3.5V107h-5.7v5.3h-2.9v3.7h2.9v7.7c0,4.7,1.2,6.1,6.1,6.1
	c1,0,2.1-0.1,3.1-0.2v-4.2c-0.5,0-1,0-1.5,0c-1.2,0-2-0.3-2-1.7V116h3.5L109.4,112.3z M111.7,129.8h5.7v-8.5c0-3.6,0.9-4.7,2.9-4.7
	c1.6,0,2.1,1.3,2.1,3.3v9.9h5.7v-8.5c0-2.8,0.2-4.7,2.7-4.7c1.5,0,2.4,1.1,2.4,3v10.2h5.7v-10.4c0-3.3-0.6-7.5-6.1-7.5
	c-2.4,0-4.1,1-5.4,2.8c-0.9-2.1-2.9-2.8-5.1-2.8c-2,0-4,1.1-5,2.9h0v-2.4h-5.5V129.8z M159.8,122.4c0.3-5.9-2.8-10.6-9.1-10.6
	c-5.1,0-9.4,3.8-9.4,9.2c0,5.8,3.9,9.3,9.6,9.3c3.9,0,7.6-1.7,8.7-5.8h-5.3c-0.5,1.3-1.9,1.9-3.3,1.9c-2.4,0-3.8-1.6-3.9-4
	L159.8,122.4z M146.9,119.2c0.4-2.1,1.7-3.6,3.7-3.6c1.9,0,3.3,1.6,3.4,3.6H146.9z M161.9,129.8h5.7v-9.5c0-1.9,0.9-3.7,3.1-3.7
	c3.1,0,2.8,2.4,2.8,4.8v8.5h5.7v-11.2c0-2.5-0.5-6.8-6.3-6.8c-2.1,0-4.5,1.1-5.5,2.9h0v-2.4H162L161.9,129.8z M192.8,112.3h-3.6V107
	h-5.7v5.3h-2.9v3.7h2.9v7.7c0,4.7,1.2,6.1,6.1,6.1c1,0,2.1-0.1,3.1-0.2v-4.2c-0.5,0-1,0-1.5,0c-1.2,0-2-0.3-2-1.7V116h3.6
	L192.8,112.3L192.8,112.3z M203.8,121.1c0,5.3,3.8,9.2,9.2,9.2s9.2-4,9.2-9.2c0-5.3-3.8-9.3-9.2-9.3S203.8,115.8,203.8,121.1
	L203.8,121.1z M209.5,121.1c0-2.2,0.8-4.9,3.5-4.9c2.7,0,3.5,2.7,3.5,4.9c0,2.2-0.8,4.9-3.5,4.9
	C210.3,125.9,209.5,123.3,209.5,121.1L209.5,121.1z M225.4,129.8h5.7V116h3.4v-3.7h-3.4v-0.8c0-1.6,0.8-1.7,2.1-1.7
	c0.5,0,1,0,1.6,0.1v-4.1c-0.9,0-1.9-0.1-2.8-0.1c-4.9,0-6.6,1.6-6.6,6.5h-2.8v3.7h2.8V129.8z M0.3,166.8h19.5v-5.4H6.5v-4.6h11.8
	v-4.9H6.5v-4.2h12.9v-5H0.3L0.3,166.8L0.3,166.8z M39.7,142.7H34v8.5h-0.1c-1.2-1.6-3-2.5-5-2.4c-4.9,0-7.3,4.3-7.3,8.9
	c0,4.9,2.3,9.6,7.8,9.6c1.9,0,3.7-0.9,4.8-2.5h0.1v2h5.4C39.7,166.7,39.7,142.7,39.7,142.7z M30.8,153.2c2.5,0,3.4,2.3,3.4,4.9
	c0,2.2-0.6,4.9-3.4,4.9c-2.6,0-3.5-2.7-3.5-5C27.3,155.6,28.1,153.2,30.8,153.2z M60.2,149.3h-5.7v9.4c0,3.1-1.9,3.9-3.1,3.9
	c-1.8,0-2.8-0.8-2.8-3.1v-10.2h-5.7v10.5c0,4.6,1.5,7.5,6.5,7.5c2.1,0,4.1-1.1,5.3-2.9h0.1v2.4h5.6L60.2,149.3z M80.4,155.7
	c-0.4-4.6-4.3-6.9-8.6-6.9c-5.6,0-9.1,4-9.1,9.5c0,5.3,3.9,8.9,9.1,8.9c4.6,0,8.3-2.7,8.8-7.3H75c-0.3,1.8-1.3,3-3.3,3
	c-2.4,0-3.4-2.3-3.4-4.6c0-2.4,0.5-5.1,3.7-5.1c1.5-0.1,2.7,1.1,2.8,2.5L80.4,155.7z M87.8,154.7c0.3-1.5,1.3-2.2,2.8-2.2
	c1.2,0,2.8,0.5,2.8,1.8c0,1.1-0.5,1.4-1.5,1.6c-4,0.8-10.2,0.4-10.2,6.1c0,3.6,2.6,5.3,6,5.3c2.1,0,4.3-0.6,5.7-2.1
	c0,0.6,0.2,1.1,0.4,1.6h5.7c-0.7-1.4-0.7-3-0.7-4.5v-7.7c0-4.9-4-5.8-8.1-5.8c-2,0-4,0.4-5.6,1.2c-1.7,0.9-2.7,2.8-2.7,4.7
	L87.8,154.7z M87.5,161.8c0-1.4,1.1-1.9,2.4-2.2c1.3-0.3,2.7-0.4,3.5-0.9c0.1,3.6-0.8,5.2-3.5,5.2C88.6,163.7,87.5,163.1,87.5,161.8
	L87.5,161.8z M112.3,149.3h-3.5V144h-5.7v5.3h-2.9v3.7h2.9v7.7c0,4.7,1.2,6.1,6.1,6.1c1,0,2.1-0.1,3.1-0.2v-4.2c-0.5,0-1,0-1.5,0
	c-1.2,0-2-0.3-2-1.7V153h3.5L112.3,149.3z M120.4,142.8h-5.7v4.4h5.7V142.8z M114.7,166.8h5.7v-17.5h-5.7V166.8z M122.8,158
	c0,5.3,3.8,9.2,9.2,9.2c5.4,0,9.2-4,9.2-9.2s-3.8-9.3-9.2-9.3C126.5,148.8,122.8,152.8,122.8,158z M128.5,158c0-2.2,0.8-4.9,3.5-4.9
	c2.7,0,3.5,2.7,3.5,4.9s-0.8,4.9-3.5,4.9C129.3,162.9,128.5,160.3,128.5,158z M143.5,166.8h5.7v-9.5c0-1.9,0.9-3.7,3.1-3.7
	c3.1,0,2.8,2.4,2.8,4.8v8.5h5.7v-11.2c0-2.5-0.5-6.8-6.3-6.8c-2.1,0-4.5,1.1-5.5,2.9h0v-2.4h-5.6L143.5,166.8L143.5,166.8z"/>
<polygon class="st1" points="261.9,0.7 203.7,0.7 186.2,18.2 186.2,76.4 203.7,93.8 261.9,93.8 279.3,76.4 279.3,58.9 273.5,53.1 
	244.4,53.1 244.4,58.9 221.1,58.9 221.1,35.6 244.4,35.6 244.4,41.4 273.5,41.4 279.3,35.6 279.3,18.2 "/>
<polygon class="st7" points="87.3,0.7 64,0.7 58.2,6.5 58.2,29.8 29.1,0.7 5.8,0.7 0,6.5 0,88 5.8,93.8 29.1,93.8 34.9,88 
	34.9,64.7 64,93.8 64,93.8 87.3,93.8 93.1,88 93.1,6.5 "/>
<polygon class="st8" points="128,93.8 151.3,93.8 157.1,88 157.1,70.5 186.2,41.5 186.2,6.5 180.4,0.7 157.1,0.7 151.3,6.5 
	151.3,18.2 139.6,29.8 128,18.2 128,18.2 128,6.5 122.2,0.7 98.9,0.7 93.1,6.5 93.1,41.5 122.2,70.5 122.2,88 "/>
</svg>
