<?xml version="1.0" encoding="utf-8"?>
<!-- Generator: Adobe Illustrator 17.0.2, SVG Export Plug-In . SVG Version: 6.00 Build 0)  -->
<!DOCTYPE svg PUBLIC "-//W3C//DTD SVG 1.1//EN" "http://www.w3.org/Graphics/SVG/1.1/DTD/svg11.dtd">
<svg version="1.1"
	 id="Layer_1" xmlns:dc="http://purl.org/dc/elements/1.1/" xmlns:cc="http://web.resource.org/cc/" xmlns:rdf="http://www.w3.org/1999/02/22-rdf-syntax-ns#" xmlns:svg="http://www.w3.org/2000/svg" xmlns:sodipodi="http://sodipodi.sourceforge.net/DTD/sodipodi-0.dtd" xmlns:inkscape="http://www.inkscape.org/namespaces/inkscape"
	 xmlns="http://www.w3.org/2000/svg" xmlns:xlink="http://www.w3.org/1999/xlink" x="0px" y="0px" width="631.804px"
	 height="476.63px" viewBox="0 0 631.804 476.63" enable-background="new 0 0 631.804 476.63" xml:space="preserve">
<g id="path162_1_">
	<path fill="#F3E462" d="M201.972,333.617c-0.114,0.038-0.219,0.086-0.323,0.134c-4.779,2.318,0.189,17.955,9.262,28.776
		c8.702,10.364,25.251,24.765,37.316,30.817c11.666,5.852,33.734,2.878,46.968,4.379c21.137,2.403,38.332-3.904,52.164-16.416
		l0.02-0.047c0.703,0.361,1.425,0.713,2.157,1.045c8.189,3.781,20.482,8.722,28.633,5.89l0.035,0.114
		c-0.921,28.006,36.566,55.717,52.697,74.698c3.316-2.718,10.441-3.782,15.02-5.244c2.366-0.76,5.263-1.662,8.17-2.717
		c1.397-0.494,2.793-1.036,4.142-1.615c2.879-1.235,5.53-2.631,7.401-4.199c-0.712-2.375-2.651-6.755-3.724-9.234
		c-1.71-3.942-2.641-8.939-4.085-13.062c-0.01-0.039-0.029-0.067-0.038-0.105l0.041,0.106c1.177,1.197,2.698,2.052,4.75,2.413
		c6.583,1.139,13.062-3.563,19.047-2.043c6.793,1.73,11.239,5.368,18.639,5.358c6.052-0.01,14.136,1.377,19.655-1.007
		c12.749-5.501,21.394-16.968,30.276-26.99c4.665-5.253,7.506-10.146,11.021-16.026c2.85-4.76,6.706-9.795,8.492-14.982
		c2.033-5.899,6.583-10.972,6.916-17.357c0.322-6.109-0.086-11.941-0.333-18.012c-0.475-11.542-2.908-21.318-11.496-28.852
		c-0.057-0.057-0.123-0.103-0.18-0.161l0.181,0.161c5.415,0.609,10.887,0.371,16.368-1.007c5.624-1.406,10.26-3.866,14.108-7.087
		c16.615-13.927,18.183-42.132,19.133-61.389c1.691-34.361-8.626-62.719-28.025-91.181c-3.125-4.589-6.393-9.025-9.794-13.309
		c-37.126-46.94-89.414-76.371-143.545-101.242c-15.41-7.077-33.288-10.08-51.462-12.056c-17.802-1.957-35.89-2.935-52.211-5.843
		c-33.525-5.956-71.639-1.824-103.217,9.985c-32.367,12.103-66.823,11.609-95.798,32.689
		c-27.607,20.073-55.071,41.724-77.292,67.583C17.471,168.022-0.342,254.3,41.439,298.704
		c37.952,40.328,107.293,51.138,160.208,35.046"/>
	<path fill="none" stroke="#DA8265" stroke-width="2" d="M201.972,333.617c-0.114,0.038-0.219,0.086-0.323,0.134
		c-4.779,2.318,0.189,17.955,9.262,28.776c8.702,10.364,25.251,24.765,37.316,30.817c11.666,5.852,33.734,2.878,46.968,4.379
		c21.137,2.403,38.332-3.904,52.164-16.416l0.02-0.047c0.703,0.361,1.425,0.713,2.157,1.045c8.189,3.781,20.482,8.722,28.633,5.89
		l0.035,0.114c-0.921,28.006,36.566,55.717,52.697,74.698c3.316-2.718,10.441-3.782,15.02-5.244c2.366-0.76,5.263-1.662,8.17-2.717
		c1.397-0.494,2.793-1.036,4.142-1.615c2.879-1.235,5.53-2.631,7.401-4.199c-0.712-2.375-2.651-6.755-3.724-9.234
		c-1.71-3.942-2.641-8.939-4.085-13.062c-0.01-0.039-0.029-0.067-0.038-0.105l0.041,0.106c1.177,1.197,2.698,2.052,4.75,2.413
		c6.583,1.139,13.062-3.563,19.047-2.043c6.793,1.73,11.239,5.368,18.639,5.358c6.052-0.01,14.136,1.377,19.655-1.007
		c12.749-5.501,21.394-16.968,30.276-26.99c4.665-5.253,7.506-10.146,11.021-16.026c2.85-4.76,6.706-9.795,8.492-14.982
		c2.033-5.899,6.583-10.972,6.916-17.357c0.322-6.109-0.086-11.941-0.333-18.012c-0.475-11.542-2.908-21.318-11.496-28.852
		c-0.057-0.057-0.123-0.103-0.18-0.161l0.181,0.161c5.415,0.609,10.887,0.371,16.368-1.007c5.624-1.406,10.26-3.866,14.108-7.087
		c16.615-13.927,18.183-42.132,19.133-61.389c1.691-34.361-8.626-62.719-28.025-91.181c-3.125-4.589-6.393-9.025-9.794-13.309
		c-37.126-46.94-89.414-76.371-143.545-101.242c-15.41-7.077-33.288-10.08-51.462-12.056c-17.802-1.957-35.89-2.935-52.211-5.843
		c-33.525-5.956-71.639-1.824-103.217,9.985c-32.367,12.103-66.823,11.609-95.798,32.689
		c-27.607,20.073-55.071,41.724-77.292,67.583C17.471,168.022-0.342,254.3,41.439,298.704
		c37.952,40.328,107.293,51.138,160.208,35.046"/>
</g>
<path id="path38" fill="none" stroke="#DA8265" stroke-width="4" d="M407.218,227.945c8.198,3.724,15.334,8.911,24.045,11.562
	c6.953,2.118,13.832,4.475,20.567,7.201c1.738,0.693,3.467,1.415,5.187,2.166c0.172,0.076,0.333,0.142,0.504,0.228
	c5.52,2.413,10.906,5.091,16.16,7.989c10.326,5.672,20.188,12.179,29.678,19.199c0.674,0.495,1.349,0.998,2.033,1.511
	c16.691,12.445,37.553,28.871,59.404,31.34c5.415,0.609,10.887,0.371,16.368-1.007c5.624-1.406,10.26-3.866,14.108-7.087
	c16.615-13.927,18.183-42.132,19.133-61.389c1.691-34.361-8.626-62.719-28.025-91.181c-3.125-4.589-6.393-9.025-9.794-13.309
	c-37.126-46.94-89.414-76.371-143.545-101.242c-15.41-7.077-33.288-10.08-51.462-12.056c-17.802-1.957-35.89-2.935-52.211-5.843
	c-33.525-5.956-71.639-1.824-103.217,9.985c-32.367,12.103-66.823,11.609-95.798,32.689c-27.607,20.073-55.071,41.724-77.292,67.583
	c-35.59,41.44-53.403,127.718-11.622,172.122c37.952,40.328,107.293,51.138,160.208,35.046c4.189-1.274,8.265-2.717,12.227-4.323
	c12.911-5.244,29.412-14.364,39.406-26.742c2.109-2.612,3.933-5.367,5.358-8.255c3.515-7.067,4.731-14.962,2.29-23.608
	c-0.674-2.384-2.043-5.586-3.924-9.148c-1.282-2.433-2.812-5.025-4.531-7.648c-1.929-2.945-4.095-5.909-6.413-8.692
	c-9.206-11.01-20.881-19.085-30.143-11.086"/>
<path id="path40" fill="none" stroke="#DA8265" stroke-width="3" d="M215.917,233.949c-7.771-5.016-20.995-6.175-25.612-15.172
	c-4.579-8.921,3.296-20.501,11.505-22.971c9.823-2.964,22.382-4.342,32.671-5.358c5.424-0.532,10.526-1.055,16.093-1.387
	c6.118-0.37,13.414-1.833,19.637-1.13c6.156,0.693,10.83,1.15,15.276,1.682c5.785,0.674,11.181,1.463,18.914,3.021
	c4.911,0.997,9.215,2.973,13.319,5.292c5.349,3.031,10.393,6.631,16.103,9.348c8.921,4.256,18.022,11.096,25.393,17.318
	c6.194,5.235,9.917,11.618,16.13,16.179c2.071,1.521,4.427,2.84,7.229,3.847c9.073,3.249,21.185-0.93,23.977-10.668
	c0.513-1.786,0.655-3.829,0.513-5.995c-0.579-8.692-5.889-19.361-11.172-23.351c-4.854-3.667-9.386-5.805-13.889-9.918
	c-5.672-5.168-11.143-6.897-18.135-10.251c-10.232-4.911-19.361-11.333-30.01-15.324c-24.349-9.129-49.353-7.191-75.363-7.191
	c-14.25,0-25.954-2.441-40.185-1.121c-16.254,1.501-24.386,2.499-37.515,11.125c-16.064,10.554-37.459,34.067-29.383,57.028
	c3.676,10.479,12.625,17.347,23.503,19.38c10.526,1.967,20.777,2.271,29.393-4.626C207.852,240.856,212.858,237.103,215.917,233.949
	z"/>
<path id="path42" fill="none" stroke="#DA8265" stroke-width="2" d="M411.56,269.299c3.686,1.178,6.964,4.294,9.595,7.41
	c0.647,0.77,1.254,1.53,1.824,2.271c2.984,3.896,3.459,8.531,5.558,12.636c2.157,4.227,5.405,8.787,8.788,12.292
	c3.078,3.192,8.341,5.101,9.576,9.405"/>
<path id="path44" fill="none" stroke="#DA8265" stroke-width="2" d="M414.894,251.079c0.047,0.01,0.096,0.019,0.152,0.037
	c3.591,0.931,10.725,6.575,13.499,8.912c2.917,2.441,5.32,5.757,8.351,7.941"/>
<path id="path46" fill="none" stroke="#DA8265" stroke-width="2" d="M444.904,247.953c0.286,4.388-1.539,7.144,0,11.695
	c1.263,3.762,2.585,7.818,4.589,11.324c2.147,3.753,4.161,7.41,5.995,11.353c1.463,3.135,4.531,8.208,4.417,11.647"/>
<path id="path48" fill="none" stroke="#DA8265" stroke-width="2" d="M459.278,253.329c0.788,6.08,0.827,12.027,2.632,17.641"/>
<path id="path50" fill="none" stroke="#DA8265" stroke-width="2" d="M487.047,273.963c0,4.237-0.389,8.597-2.061,12.33
	c-0.475,1.054-0.95,2.118-1.415,3.201c-0.93,2.195-1.796,4.465-2.404,6.802c-0.96,3.724-1.614,7.439-3.335,10.944
	c-1.539,3.136-4.275,6.451-5.254,9.748"/>
<path id="path52" fill="none" stroke="#DA8265" stroke-width="2" d="M513.828,290.446c-1.653,5.71-5.139,14.991-7.904,19.865"/>
<path id="path54" fill="none" stroke="#DA8265" stroke-width="4" d="M513.931,290.094c-0.029,0.114-0.066,0.228-0.104,0.342"/>
<path id="path56" fill="none" stroke="#DA8265" stroke-width="2" d="M522.681,351.996c0,0,0-0.009-0.009-0.009
	c-2.926-4.019-8.57-9.443-12.426-12.74c-3.372-2.898-6.336-3.097-10.583-4.247c-3.99-1.084-7.704-1.624-11.761-2.327
	c-3.858-0.665-9.634-3.467-13.32-0.352"/>
<path id="path58" fill="none" stroke="#DA8265" stroke-width="2" d="M496.424,390.642c-0.313-3.733-5.045-10.982-6.764-15.371
	c-1.577-4.038-2.356-8.142-4.323-11.932c-3.705-7.173-8.237-15.067-14.754-19.674"/>
<path id="path60" fill="none" stroke="#DA8265" stroke-width="2" d="M452.029,384.885c-0.152-7.154,6.26-15.932,6.546-22.885
	c0.133-3.183,0.455-6.878,0-10.004c-0.513-3.477-2.565-6.517-3.667-9.671"/>
<path id="path62" fill="none" stroke="#DA8265" stroke-width="2" d="M421.022,276.718c0.048-0.009,0.086-0.009,0.133-0.009
	c5.111-0.532,14.63,2.831,17.993,6.26c1.796,1.834,3.202,4.18,4.997,6.014c1.548,1.577,5.149,3.287,5.424,5.329"/>
<path id="path64" fill="none" stroke="#DA8265" stroke-width="2" d="M483.665,289.478c-0.029,0.009-0.066,0.019-0.096,0.019
	c-6.117,1.473-12.92,7.429-15.324,12.815"/>
<path id="path66" fill="none" stroke="#DA8265" stroke-width="2" d="M484.986,286.294c0.522,6.195,3.838,21.214,3.267,27.36"/>
<path id="path68" fill="none" stroke="#DA8265" stroke-width="2" d="M466.537,393.141c0.447-2.822,2.536-6.003,2.974-8.815
	c0.342-2.233,0.066-4.702,0.066-6.983"/>
<path id="path70" fill="none" stroke="#DA8265" stroke-width="2" d="M485.916,395.012c-0.009-0.02-0.019-0.038-0.019-0.066
	c-0.893-2.612-1.434-6.736-3.315-8.93"/>
<path id="path72" fill="none" stroke="#DA8265" stroke-width="2" d="M511.434,386.766c-1.387-5.871-6.46-15.874-9.842-20.758"/>
<path id="path74" fill="none" stroke="#DA8265" stroke-width="2" d="M522.054,372.887c-0.598-1.948-6.64-6.66-8.787-7.211"/>
<path id="path76" fill="none" stroke="#DA8265" stroke-width="2" d="M437.4,367.88c0.76-2.888,2.203-6.147,2.165-9.214"/>
<path id="path78" fill="none" stroke="#DA8265" stroke-width="2" d="M407.39,313.607c4.265,1.682,6.973,6.659,11.999,8.009
	c3.496,0.93,7.211,1.377,10.677,2.66"/>
<path id="path80" fill="none" stroke="#DA8265" stroke-width="2" d="M481.166,267.218c-6.564,1.691-7.249,9.861-7.249,15.086"/>
<path id="path82" fill="none" stroke="#DA8265" stroke-width="3" d="M289.172,227.28c-4.456-0.827-11.238-2.261-13.423,2.66
	c-2.233,5.044,2.251,10.887,6.754,12.939c4.408,2.014,11.438,3.401,14.089-1.596C298.596,237.503,294.397,228.259,289.172,227.28z"
	/>
<path id="path84" fill="none" stroke="#DA8265" stroke-width="2" d="M515.851,389.512c-0.152,3.562,0.826,7.077,1.235,10.592
	c0.523,4.399,0.427,8.787,0.427,13.234c0,5.149,0.922,9.196-0.333,14.07"/>
<path id="path86" fill="none" stroke="#DA8265" stroke-width="2" d="M520.687,386.263c0.009,7.571,3.753,14.896,4,22.135
	c0.114,3.335,0.484,14.279-1.881,16.758"/>
<path id="path88" fill="none" stroke="#DA8265" stroke-width="2" d="M523.812,380.259c1.957,4.722,4.323,7.496,5.482,12.407
	c0.893,3.8,1.178,8.056,1.311,11.951c0.172,5.13,0,10.289,0,15.41"/>
<path id="path90" fill="none" stroke="#DA8265" stroke-width="2" d="M526.814,370.882c5.073,5.672,10.753,17.29,12.797,24.472
	c1.444,5.092,2.289,6.537,2.584,11.913"/>
<path id="path92" fill="none" stroke="#DA8265" stroke-width="2" d="M525.93,360.499c8.065,5.947,15.552,18.088,20.662,26.249
	c2.765,4.417,3.022,8.122,3.022,13.271"/>
<path id="path94" fill="none" stroke="#DA8265" stroke-width="2" d="M531.316,301.105c-0.161,7.297,7.515,20.026,10.033,26.799
	c2.536,6.811,6.117,12.921,8.949,19.617c3.059,7.249,4.626,14.535,4.645,22.382c0.02,5.776-0.247,14.621-0.247,20.483"/>
<path id="path96" fill="none" stroke="#DA8265" stroke-width="2" d="M537.605,345.66c3.116,2.698,5.966,10.849,7.268,15.077
	c1.092,3.572,3.838,16.273,2.441,19.77"/>
<path id="path98" fill="none" stroke="#DA8265" stroke-width="2" d="M533.939,350.753c3.496,3.543,3.771,12.577,5.129,17.251"/>
<path id="path100" fill="none" stroke="#DA8265" stroke-width="2" d="M529.313,353.128c0.722,3.372,3.885,6.508,4.247,10.003"/>
<path id="path102" fill="none" stroke="#DA8265" stroke-width="2" d="M538.441,310.728c6.907-0.142,13.481,5.225,19.674,7.183
	c4.19,1.33,5.91,1.358,9.71,3.448"/>
<path id="path104" fill="none" stroke="#DA8265" stroke-width="2" d="M542.441,319.734c6.251,1.482,15.647,5.738,21.612,8.274
	c2.699,1.14,4.399,2.86,8.151,5.111"/>
<path id="path106" fill="none" stroke="#DA8265" stroke-width="2" d="M546.44,329.491c7.438,2.451,11.105,2.699,16.882,7.628
	c3.42,2.917,5.766,3.497,9.253,6.251"/>
<path id="path108" fill="none" stroke="#DA8265" stroke-width="2" d="M550.612,338.991c7.742,4.427,17.604,5.405,22.344,13.386"/>
<path id="path110" fill="none" stroke="#DA8265" stroke-width="2" d="M555.693,350.495c5.397,3.059,11.039,8.768,13.385,14.259"/>
<path id="path112" fill="none" stroke="#DA8265" stroke-width="2" d="M558.696,362.503c-0.085,2.813,3.021,6.337,3.981,8.854
	c0.74,1.92,1.007,4.285,0.94,6.65"/>
<path id="path114" fill="none" stroke="#DA8265" stroke-width="2" d="M441.571,383.015c-1.13,0.655-1.073,1.101-1.919,1.995"/>
<path id="path116" fill="none" stroke="#DA8265" stroke-width="2" d="M476.577,400.684c-0.227,7.913-6.099,17.822-11.038,23.845"/>
<path id="path118" fill="none" stroke="#DA8265" stroke-width="2" d="M468.161,399.268c-2.1,4.123-7.353,13.32-10.878,16.131"/>
<path id="path120" fill="none" stroke="#DA8265" stroke-width="2" d="M461.91,396.391c-1.254,3.059-7.514,8.027-8.255,11.01"/>
<path id="path122" fill="none" stroke="#DA8265" stroke-width="2" d="M453.161,391.763c-1.463,1.311-3.562,4.284-4.379,6.003"/>
<path id="path124" fill="none" stroke="#DA8265" stroke-width="2" d="M447.279,387.517c-0.798,1.72-3.182,3.82-3.039,5.834"/>
<path id="path126" fill="none" stroke="#DA8265" stroke-width="2" d="M485.165,400.019c1.928,5.206,2.014,17.299-0.124,23.01"/>
<path id="path128" fill="none" stroke="#DA8265" stroke-width="2" d="M494.172,397.52c0,5.643,2.128,13.405,0.827,18.858
	c-0.77,3.211-2.204,6.384-2.413,9.651"/>
<path id="path130" fill="none" stroke="#DA8265" stroke-width="2" d="M499.549,395.269c5.149,5.947,5.928,25.584,2.707,32.766"/>
<path id="path132" fill="none" stroke="#DA8265" stroke-width="2" d="M507.425,392.77c-0.361,7.04,4.341,14.27,5.177,21.166
	c0.608,5.025,0.019,9.709-1.339,14.43"/>
<path id="path134" fill="none" stroke="#DA8265" stroke-width="4" d="M285.837,189.603c-0.114,0-0.228,0-0.352,0.01
	c-19.76,0.399-48.279,34.789-39.33,55.347"/>
<path id="path136" fill="none" stroke="#DA8265" stroke-width="3" d="M319.515,198.6c-0.589-0.247-1.188-0.475-1.796-0.674
	c-15.865-5.415-37.287,2.147-47.557,9.091c-18.088,12.217-21.546,34.789-13.006,54.283"/>
<path id="path138" fill="none" stroke="#DA8265" stroke-width="4" d="M347.359,381.009c-13.832,12.512-31.027,18.819-52.164,16.416
	c-13.234-1.501-35.302,1.473-46.968-4.379c-12.065-6.052-28.614-20.453-37.316-30.817c-9.073-10.821-14.041-26.458-9.262-28.776
	c0.104-0.048,0.209-0.096,0.323-0.134"/>
<path id="path140" fill="none" stroke="#DA8265" stroke-width="3" d="M576.547,135.197c-13.784,3.524-21.917,19.199-28.899,30.001
	c-6.46,9.994-13.328,18.373-21.052,27.237c-12.132,13.908-24.662,39.007-43.159,47.015c-0.533,0.238-1.064,0.447-1.605,0.646
	c-2.337,0.874-4.779,1.472-7.315,1.738c-4.076,0.428-8.416,0-12.521,0"/>
<path id="path142" fill="none" stroke="#DA8265" stroke-width="3" d="M594.996,300.734c-19.342,2.118-37.772-17.651-53.684-26.125
	c-9.234-4.911-18.05-9.443-26.581-15.675c-7.486-5.462-21.926-17.29-31.283-19.475"/>
<path id="path144" fill="none" stroke="#DA8265" stroke-width="3" d="M381.559,22.071c-10.079,11.4-18.012,46.446-25.963,59.527"/>
<path id="path146" fill="none" stroke="#DA8265" stroke-width="4" d="M443.936,401.738c-0.058-0.134-0.104-0.276-0.152-0.418"/>
<path id="path148" fill="none" stroke="#DA8265" stroke-width="4" d="M444.497,403.021c-0.218-0.409-0.399-0.827-0.551-1.254"/>
<path id="path150" fill="none" stroke="#DA8265" stroke-width="4" d="M564.615,308.98c0.057,0.058,0.123,0.104,0.18,0.161
	c8.588,7.534,11.021,17.31,11.496,28.852c0.247,6.071,0.655,11.903,0.333,18.012c-0.333,6.385-4.883,11.458-6.916,17.357
	c-1.786,5.187-5.642,10.222-8.492,14.982c-3.515,5.88-6.356,10.773-11.021,16.026c-8.882,10.022-17.527,21.489-30.276,26.99
	c-5.519,2.384-13.603,0.997-19.655,1.007c-7.4,0.01-11.846-3.628-18.639-5.358c-5.985-1.52-12.464,3.182-19.047,2.043
	c-2.052-0.361-3.573-1.216-4.75-2.413c-3.287-3.277-3.972-9.045-6.185-13.29c-1.796-3.43-5.32-6.688-7.134-10.289"/>
<path id="path152" fill="none" stroke="#DA8265" stroke-width="3" d="M253.195,302.397c0.029,0,0.057-0.009,0.085-0.009
	c13.747-1.406-2.309,12.065,1.549,15.932c5.785,5.814,9.842-5.596,11.599-9.234c-1.406,6.403,0.494,18.268-8.474,19.057
	c-11.609,1.008-8.265,12.607-0.389,17.348c7.961,4.788,26.714,4.589,27.721-8.323c0.922-11.827-17.85-5.472-16.501-18.535
	c0.988-9.462,9.262-10.336,14.383-16.654c5.681-7.011,11.381-20.263,19.532-24.025c8.949-4.141,21.09,3.125,26.04,10.042
	c5.833,8.151,14.934,10.46,21.793,17.318c-14.573-6.08-24.32-8.588-36.005,1.652c-10.555,9.235-6.811,28.101-1.349,38.362
	c8.056,15.114,18.829,27.891,34.2,35.634c0.703,0.361,1.425,0.713,2.157,1.045c8.189,3.781,20.482,8.722,28.633,5.89
	c4.731-1.643,8.075-5.909,8.379-14.554"/>
<path id="path154" fill="none" stroke="#DA8265" stroke-width="3" d="M352.527,255.628c5.538-0.684,10.079,1.169,14.639,3.411
	c2.166,1.064,4.341,2.223,6.631,3.229c7.115,3.135,15.96,6.47,20.083,13.699c3.221,5.652,9.71,10.868,5.643,17.214
	c-3.202,4.997,3.572,17.014,7.99,19.779c-3.125-9.861-4.409-19.551-4.561-29.992c-0.066-4.465,0.304-10.678,5.52-12.008
	c5.272-1.349,2.261-3.221,0.997-6.327c-1.72-4.256-0.969-8.275,2.755-11.01c1.909-1.406,2.574-2.014,2.822-2.509
	c0.465-0.912-0.561-1.396,2.242-5.795c6.602-10.374,15.124-3.809,21.279-2.042c2.954,0.846,4.55,2.547,6.678,4.646
	c1.786-1.339,4.246-1.596,6.583-1.216c1.673,0.266,3.277,0.855,4.541,1.615c0.418,0.228,0.807,0.484,1.15,0.779
	c1.073,0.883,1.767,2.033,2.109,3.467c2.46,0.085,4.846,0.551,7.145,1.425c4.722,1.739,9.044,4.788,12.265,8.646
	c2.916,3.496,1.966,7.324,6.033,10.288c3.553,2.593,7.4-1.036,11.324,0.465c3.059,1.168,6.099,2.736,8.778,4.693
	c4.228,3.116,7.552,7.229,8.654,12.35v0.009c0.057,0.257,0.104,0.513,0.151,0.807c0-0.009,0-0.019,0-0.028
	c0-0.722,4.256-0.674,4.693-0.579c5.434,1.055,7.03,9.966,6.641,14.089c-0.18,1.833-2.87,2.328-3.125,4.247
	c-0.39,2.87,4.057,5.652,7.534,8.341c4.969,3.848,2.318,5.919,3.22,11.334c1.14,6.83,4.266,14.449-2.498,19.19
	c-2.099,1.483-4.73,1.51-6.726,2.935c-0.437,0.304-0.769,0.712-1.045,1.207c-1.795,3.353-0.067,10.43-0.038,13.433
	c0.086,8.911-1.909,17.737-10.887,21.651c-3.211,1.406-6.717,2.081-10.184,2.489c-5.149,0.599-4.712,1.007-8.027,3.097
	c-2.176,1.378-4.874,1.986-7.638,2.289c-2.85,0.304-5.776,0.276-8.312,0.409c-9.576,0.485-18.601-4.788-25.868-10.554
	c-3.191-2.527-17.004-11.238-15.2-15.741c-2.309-0.038-4.93-0.579-6.812-1.91"/>
<path id="path156" fill="none" stroke="#DA8265" stroke-width="3" d="M374.197,248.484c2.841,1.254,5.064,3.98,4.617,6.146
	c-1.102,5.301-8.446,5.235-11.61,4.333"/>
<path id="path158" fill="none" stroke="#DA8265" stroke-width="3" d="M258.772,294.198c1.776,1.302,5.899,3.211,7.324,4.845
	c1.653,1.891,1.691,5.728,3.401,7.6c2.366-1.634,6.232-4.19,8.341-6.337c2.081-2.118,5.557-6.061,7.001-8.664
	c3.002-5.434,4.151-8.73,8.255-13.433c3.487-4.018,7.543-7.942,12.16-10.497c4.969-2.755,9.405-2.917,14.924-3.753
	c5.026-0.751,11.21-0.637,16.349,0.674c5.529,1.406,10.564,4.246,15.665,6.669c5.216,2.471,9.139,4.854,13.671,8.332
	c5.015,3.838,11.372,8.797,15.675,13.338c3.648,3.848,7.305,7.98,10.003,12.673c2.803,4.883,6.375,9.301,8.769,14.335
	c4.911,10.336,10.488,21.166,16.007,31.018c2.708,4.836,6.698,9.538,7.838,15.01c1.14,5.529,1.092,10.945,3.059,16.407
	c4.561,12.653,12.959,24.652,15.932,37.705c1.017,4.493,9.025,30.695,10.925,34.589"/>
<path id="path160" fill="none" stroke="#DA8265" stroke-width="3" d="M458.196,453.048c-0.902-3.648-9.595-25.849-9.955-29.688
	c-0.333-3.496-0.817-6.887-1.415-10.336c-0.571-3.315-1.15-6.784-2.318-9.965c0-0.009-0.009-0.029-0.009-0.038
	c-0.161-0.428-0.342-0.846-0.551-1.254c0-0.01,0-0.019-0.009-0.028c-1.463-2.954-3.866-5.624-4.303-8.94v-0.009
	c-2.85-5.738-4.455-12.674-6.63-17.785c-1.15-2.678-2.556-5.187-3.297-7.857c-0.437-1.51-0.646-3.069-0.475-4.741
	c0.475-4.626,0.94-9.167-2.279-12.835c1.824-4.455,4.171-8.388,8.607-10.83c3.345-1.842,7.828-2.279,11.163-3.733
	c-3.753,0.057-8.445,0.218-11.904-0.333c-6.926-1.102-13.679-1.625-19.854-5.016c-5.577-3.078-8.161-6.508-11.001-12.341
	c-4.551-9.357-9.415-18.012-17.081-26.343c-3.628-3.943-6.592-7.021-11.676-11.343c-4.313-3.676-8.987-6.564-14.078-9.253
	c-2.499-1.329-4.997-2.736-7.59-4c-2.574-1.254-5.615-1.729-8.009-3.325c-5.538-3.695-0.361-10.612,4.902-12.492
	c-2.062-1.948-4.579-8.798,0.437-8.939c2.954-0.085,6.041,0.019,8.673,1.415c2.897,1.539,4.797,2.993,7.999,3.914
	c1.548,0.447,3.677,1.092,5.69,1.226c0.323,0.028,0.646,0.038,0.96,0.038c0.988-0.019,1.919-0.19,2.698-0.608
	c3.534-1.862,0.01-4.389-1.672-6.66"/>
<path id="path162" fill="none" stroke="#DA8265" stroke-width="4" d="M457.787,426.533c0.009,0.038,0.028,0.066,0.038,0.105
	c1.444,4.123,2.375,9.12,4.085,13.062c1.073,2.479,3.012,6.859,3.724,9.234c-1.871,1.568-4.522,2.964-7.401,4.199
	c-1.349,0.579-2.745,1.121-4.142,1.615c-2.907,1.055-5.804,1.957-8.17,2.717c-4.579,1.462-11.704,2.526-15.02,5.244
	c-16.131-18.981-53.618-46.692-52.697-74.698"/>
<path id="path164" fill="none" stroke="#DA8265" stroke-width="3" d="M484.397,213.334c-13.3-23.512-24.852-32.158-27.075-33.488
	c-4.987-2.983-22.202-13.936-27.55-17.1c-13.338-7.885-29.992-16.483-44.413-22.249c-17.081-6.821-31.502-12.445-46.921-16.653
	c-9.453-2.594-19.295-4.655-30.343-6.146c-14.782-1.986-37.687-2.09-52.573-1.9c-13.652,0.18-32.927,1.853-46.227,4.437
	c-25.365,4.93-52.335,19.551-70.3,38c-17.641,18.107-20.9,44.469-20.9,68.4c0,11.58,7.847,24.282,17.29,32.338
	c9.481,8.094,35.625,15.21,47.386,14.687c9.044-0.399,42.551-13.528,48.878-9.766c1.15,0.685,1.406,1.928,0.447,3.904"/>
</svg>
