<?xml version="1.0" encoding="utf-8"?>
<!-- Generator: Adobe Illustrator 17.0.2, SVG Export Plug-In . SVG Version: 6.00 Build 0)  -->
<!DOCTYPE svg PUBLIC "-//W3C//DTD SVG 1.1//EN" "http://www.w3.org/Graphics/SVG/1.1/DTD/svg11.dtd">
<svg version="1.1" id="Layer_1" xmlns="http://www.w3.org/2000/svg" xmlns:xlink="http://www.w3.org/1999/xlink" x="0px" y="0px"
	 width="960px" height="560px" viewBox="0 0 960 560" enable-background="new 0 0 960 560" xml:space="preserve">
<path fill="#F09171" stroke="#DA8265" stroke-miterlimit="10" d="M702.781,275.043c0,106.867-111.1,204.884-220.062,204.884
	S272.778,374.321,272.778,267.454c0-106.87,143.98-202.357,252.942-202.357S702.781,168.173,702.781,275.043z"/>
<circle fill="#F3E462" stroke="#EBCE2A" stroke-miterlimit="10" cx="534.609" cy="300.03" r="116.355"/>
<path fill="#8167E6" stroke="#3833D4" stroke-width="0.5" stroke-miterlimit="10" d="M445.025,196.107
	c22.092-17.805,53.912-29.264,51.669-33.746c-3.68-7.361-26.648,4.64-46.618,15.948c-20.448,11.583-38.197,26.832-41.301,22.899
	c-4.919-6.232,14.312-17.992,31.487-29.443c15.764-10.509,42.621-26.768,77.697-29.443c48.254-3.68,126.768,19.628,124.314,31.079
	c-1.212,5.655-28.751-6.769-56.432-13.085c-28.361-6.47-58.895-6.826-58.068-0.41c0.52,4.041,32.399,3.06,58.476,13.904
	c32.453,13.495,62.968,34.455,58.885,41.71c-7.361,13.085-54.795-51.934-127.992-43.754c-43.727,4.887-84.297,41.021-98.962,65.836
	c-15.948,26.989-23.672,90.014,8.794,138.422c32.046,47.785,119.174,48.583,115.317,58.885c-1.747,4.654-30.282,1.465-56.432-8.997
	c-15.455-6.183-44.164-25.353-46.618-23.309c-4.37,3.639,10.872,16.738,29.443,24.945c17.582,7.77,51.449,16.574,49.071,21.672
	c-2.863,6.134-38.528-3.835-60.932-17.788c-23.309-14.518-37.005-41.507-42.528-38.644c-4.887,2.535,16.598,33.785,36.394,45.391
	c23.719,13.904,49.903,21.194,47.844,25.762c-3.258,7.24-28.662-1.676-46.618-11.858c-27.396-15.538-59.877-48.47-76.877-90.782
	c-18.402-45.801-19.876-91.179-8.583-94.285c5.574-1.533-1.639,26.916,5.722,59.425c9.189,40.587,24.678,63.876,34.041,60.419
	c1.215-0.449-14.505-20.679-21.159-44.777c-7.454-26.992-10.734-57.659-4.6-58.272c7.348-0.734,6.36,22.359,14.108,55.818
	c6.747,29.136,23.154,46.124,27.6,42.631c4.294-3.374-21.466-24.536-25.453-66.859c-2.483-26.346,2.743-58.176,7.155-68.393
	C419.405,211.022,433.388,205.485,445.025,196.107z"/>
<path fill="#8167E6" stroke="#3833D4" stroke-width="0.5" stroke-miterlimit="10" d="M566.618,429.185
	c1.84,12.268,52.751-6.747,82.194-50.298c29.443-43.551,30.67-95.689,18.402-95.689c-6.774,0-2.454,58.272-34.963,97.529
	S564.778,416.917,566.618,429.185z"/>
<path fill="#8167E6" stroke="#3833D4" stroke-width="0.5" stroke-miterlimit="10" d="M575.346,105.919
	c1.438-14.025-11.74-20.948-26.346-22.742c-14.606-1.791-28.761-0.643-31.006,15.499c-2.225,15.992,11.738,20.656,26.346,22.45
	C558.946,122.92,573.807,120.923,575.346,105.919z"/>
<path fill="#F3E462" stroke="#EBCE2A" stroke-width="0.25" stroke-miterlimit="10" d="M521.841,100.563
	c-0.461,5.827,4.49,13.892,7.667,13.495c3.68-0.461,3.835-12.729,5.317-12.422c2.571,0.532-7.665,13.747,4.191,15.948
	c10.734,1.995,4.863-19.059,7.157-18.811c2.351,0.255-4.549,20.652,7.564,20.19c10.921-0.415,6.747-16.358,9.201-16.51
	c2.343-0.147-3.528,17.891,4.907,10.989c4.87-3.985,4.502-14.044,0.613-18.708c-7.667-9.201-9.527,6.369-10.221,5.675
	c-1.688-1.688,4.137-11.674-2.66-13.342c-8.129-1.995-0.743,15.646-2.554,15.283c-3.067-0.613-0.839-15.641-6.647-16.203
	c-9.508-0.92-4.083,16.544-5.621,16.613c-3.374,0.155,1.558-17.523-5.727-16.613c-9.814,1.227-3.212,12.866-4.907,13.649
	c-1.995,0.92-1.075-13.188-4.907-9.355C523.524,92.135,522.302,94.736,521.841,100.563z"/>
<path fill="#8167E6" stroke="#3833D4" stroke-width="0.5" stroke-miterlimit="10" d="M660.082,211.005
	c-12.677,6.168-11.613,21.017-5.442,34.377c6.178,13.357,14.613,24.778,29.514,18.181c14.766-6.539,11.367-20.865,5.194-34.222
	C683.172,215.983,673.64,204.405,660.082,211.005z"/>
<path fill="#F3E462" stroke="#EBCE2A" stroke-width="0.25" stroke-miterlimit="10" d="M683.729,259.298
	c5.194-2.682,9.441-11.139,7.427-13.63c-2.331-2.883-12.837,3.452-13.357,2.029c-0.903-2.463,15.72-0.731,11.345-11.968
	c-3.965-10.172-18.76,5.913-19.758,3.835c-1.023-2.135,19.945-7.017,13.168-17.072c-6.104-9.061-17.455,2.888-18.878,0.883
	c-1.359-1.911,17.062-6.433,6.752-9.961c-5.955-2.039-14.307,3.577-16.223,9.338c-3.776,11.365,10.437,4.74,10.212,5.697
	c-0.545,2.324-12.101,2.64-9.937,9.292c2.591,7.959,13.688-7.613,14.336-5.884c1.094,2.93-12.852,8.955-10.271,14.189
	c4.232,8.563,16.211-5.251,17.084-3.98c1.906,2.785-15.713,7.913-11.1,13.622c6.212,7.694,12.626-4.051,14.182-3.023
	c1.835,1.21-10.639,7.864-5.363,9.1C675.681,262.311,678.535,261.975,683.729,259.298z"/>
<path fill="#8167E6" stroke="#3833D4" stroke-width="0.5" stroke-miterlimit="10" d="M341.86,371.446
	c12.484-6.546,10.98-21.358,4.407-34.524c-6.571-13.166-15.347-24.332-30.044-17.29c-14.564,6.975-10.739,21.194-4.166,34.362
	S328.501,378.448,341.86,371.446z"/>
<path fill="#F3E462" stroke="#EBCE2A" stroke-width="0.25" stroke-miterlimit="10" d="M316.775,323.883
	c-5.111,2.834-9.103,11.414-7.015,13.845c2.417,2.814,12.729-3.835,13.291-2.431c0.977,2.441-15.693,1.205-10.982,12.305
	c4.267,10.05,18.576-6.472,19.633-4.424c1.087,2.103-19.727,7.613-12.653,17.46c6.379,8.875,17.361-3.408,18.846-1.448
	c1.416,1.872-16.861,6.941-6.453,10.16c6.011,1.857,14.194-4.004,15.938-9.819c3.435-11.473-10.572-4.424-10.376-5.388
	c0.471-2.338,12.013-3.001,9.652-9.584c-2.824-7.876-13.453,8.021-14.152,6.313c-1.183-2.895,12.577-9.338,9.836-14.491
	c-4.483-8.435-16.046,5.732-16.954,4.488c-1.99-2.726,15.47-8.381,10.688-13.948c-6.441-7.503-12.501,4.429-14.086,3.447
	c-1.87-1.153,10.398-8.178,5.086-9.255C324.727,320.628,321.888,321.047,316.775,323.883z"/>
<path fill="#8167E6" stroke="#3833D4" stroke-width="0.5" stroke-miterlimit="10" d="M300.41,261.117
	c15.335,4.294,4.294-32.51,35.577-66.246c31.398-33.862,68.697-32.51,65.633-44.777c-3.732-14.925-59.499,22.082-78.514,46.618
	C304.09,221.246,288.939,257.907,300.41,261.117z"/>
<path fill="#8167E6" stroke="#3833D4" stroke-width="0.5" stroke-miterlimit="10" d="M320.652,266.024
	c13.941,3.904-0.996-30.753,27.446-61.425c28.55-30.785,56.255-19.896,54.133-31.197c-3.678-19.628-49.569,7.748-66.857,30.056
	C318.085,225.766,310.224,263.104,320.652,266.024z"/>
<path fill="#8167E6" stroke="#3833D4" stroke-width="0.5" stroke-miterlimit="10" d="M340.28,264.797
	c15.107,0.309-5.209-26.16,17.175-50.298c22.465-24.229,44.603-9.508,42.937-18.402c-2.898-15.445-37.306-0.994-50.911,16.562
	C335.876,230.216,331.761,264.623,340.28,264.797z"/>
<ellipse fill="#8167E6" stroke="#3833D4" stroke-width="0.5" stroke-miterlimit="10" cx="317.177" cy="281.768" rx="7.77" ry="8.587"/>
<ellipse fill="#8167E6" stroke="#3833D4" stroke-width="0.5" stroke-miterlimit="10" cx="421.861" cy="144.776" rx="10.224" ry="8.997"/>
<circle fill="#8167E6" stroke="#3833D4" stroke-width="0.5" stroke-miterlimit="10" cx="486.88" cy="98.978" r="10.631"/>
<ellipse fill="#8167E6" stroke="#3833D4" stroke-width="0.5" stroke-miterlimit="10" cx="384.24" cy="419.575" rx="11.041" ry="11.451"/>
</svg>
