<?xml version="1.0" encoding="utf-8"?>
<!-- Generator: Adobe Illustrator 17.0.2, SVG Export Plug-In . SVG Version: 6.00 Build 0)  -->
<!DOCTYPE svg PUBLIC "-//W3C//DTD SVG 1.1//EN" "http://www.w3.org/Graphics/SVG/1.1/DTD/svg11.dtd">
<svg version="1.1" id="Layer_1" xmlns="http://www.w3.org/2000/svg" xmlns:xlink="http://www.w3.org/1999/xlink" x="0px" y="0px"
	 width="946.6px" height="336px" viewBox="0 0 946.6 336" style="enable-background:new 0 0 946.6 336;" xml:space="preserve">
<style type="text/css">
	.st0{fill:#8167E6;stroke:#3833D4;stroke-miterlimit:10;}
	.st1{fill:#F09171;stroke:#DA8265;stroke-width:2;stroke-miterlimit:10;}
	.st2{fill:#F3E462;stroke:#EBCE2A;stroke-width:2;stroke-miterlimit:10;}
</style>
<g>
	<path class="st0" d="M92.1,308.8l21.5-30.4c11.3,11.3,28.8,20.8,50.3,20.8c13.9,0,22.4-5.4,22.4-13c0-21.5-89.2-4.2-89.2-64.9
		c0-26.4,22.4-50,62.8-50c25.3,0,47.2,7.6,64,21.9l-22.2,29c-13.2-10.9-30.4-16.3-46-16.3c-11.8,0-17,4.7-17,11.3
		c0,20.1,89,5.4,89,64c0,31.6-23.4,52.6-65.6,52.6C130.1,333.8,107.9,323.9,92.1,308.8z"/>
	<path class="st0" d="M246.4,332V174.6h78.8c35.4,0,54.8,23.8,54.8,52.4c0,28.3-19.4,52.2-54.8,52.2H287V332H246.4z M338.7,227
		c0-10.9-8-17-18.9-17H287v33.7h32.8C330.7,243.7,338.7,237.6,338.7,227z"/>
	<path class="st0" d="M488.1,332l-7.8-22.7h-62.1l-7.8,22.7h-46l59.2-157.4h51L534.1,332H488.1z M449.1,214.7l-20.1,59.2h40.1
		L449.1,214.7z"/>
	<path class="st0" d="M633.5,332L607,279.1h-20.8V332h-40.6V174.6h78.8c34.9,0,54.8,23.1,54.8,52.4c0,27.4-16.8,42-31.4,47.2
		l32.1,57.8H633.5z M637.9,226.7c0-10.6-9-16.8-19.6-16.8h-32.1v33.7h32.1C629,243.7,637.9,237.8,637.9,226.7z"/>
	<path class="st0" d="M794.2,332l-41.3-59.2L742.3,286v46h-40.6V174.6h40.6v64.7l48.4-64.7h50l-61.1,73.6L844,332H794.2z"/>
</g>
<g>
	<g>
		<path class="st1" d="M111.5,130.8l11.3-17.9c8,8.3,23.8,16,38.7,16c14.9,0,22.4-6.4,22.4-15.3c0-22.4-68.9-6.4-68.9-50
			c0-18.6,16-34.7,44.8-34.7c19.4,0,34,6.8,44.4,16l-10.4,17.5c-6.8-7.8-19.6-13.7-33.7-13.7c-13,0-21.2,5.9-21.2,13.9
			c0,20.3,68.9,5.2,68.9,50.5c0,20.1-16.8,35.4-47.4,35.4C141,148.5,123.3,142.3,111.5,130.8z"/>
	</g>
	<g>
		<path class="st1" d="M315.7,145.2v-15.1c-8.3,9.2-22.4,17.9-40.4,17.9c-24.5,0-36.6-12.7-36.6-36.1V31.3h24.8V103
			c0,17.7,9,23.1,22.9,23.1c12.5,0,23.4-7.1,29.3-14.9v-80h24.8v114H315.7z"/>
	</g>
	<g>
		<path class="st1" d="M456.4,144.2V73c0-17.7-9-23.6-22.9-23.6c-12.7,0-23.6,7.6-29.3,15.3v79.5h-24.8v-114h24.8v15.6
			c7.6-9,22.2-18.4,40.1-18.4c24.5,0,36.8,13.2,36.8,36.6v80.2H456.4z"/>
	</g>
	<g>
		<path class="st1" d="M511,129.4l11.3-17.9c8,8.3,23.8,16,38.7,16s22.4-6.4,22.4-15.3c0-22.4-68.9-6.4-68.9-50
			c0-18.6,16-34.7,44.8-34.7c19.4,0,34,6.8,44.4,16l-10.4,17.5c-6.8-7.8-19.6-13.7-33.7-13.7c-13,0-21.2,5.9-21.2,13.9
			c0,20.3,68.9,5.2,68.9,50.5c0,20.1-16.8,35.4-47.4,35.4C540.5,147.1,522.8,140.9,511,129.4z"/>
	</g>
	<g>
		<path class="st1" d="M630.8,87.5c0-33,24.1-59.7,57.8-59.7c34.2,0,56.2,26.2,56.2,62.1v5.9h-88c1.9,17.2,14.9,31.4,36.3,31.4
			c11.1,0,24.3-4.5,32.3-12.5l11.3,16.3c-11.3,10.9-28.1,16.5-46.3,16.5C656.2,147.5,630.8,123.6,630.8,87.5z M688.6,48.1
			c-21.2,0-30.9,16.3-32.1,30.2h64.2C720.2,64.9,711,48.1,688.6,48.1z"/>
	</g>
	<g>
		<path class="st1" d="M782.7,120.2V54.3h-18.9V32.6h18.9V1.5h24.8v31.2h23.1v21.7h-23.1V114c0,7.8,3.8,13.5,10.9,13.5
			c4.7,0,9.2-1.9,11.1-4l5.9,18.6c-4.5,4.2-11.8,7.3-23.4,7.3C792.9,149.4,782.7,139,782.7,120.2z"/>
	</g>
</g>
<g>
	<polygon class="st2" points="47.3,78 77.3,78 56.2,186 82.3,186 53,335 1.3,335 37.2,207 8.3,207 	"/>
	<circle class="st2" cx="64.8" cy="27.8" r="26.5"/>
</g>
<g>
	<polygon class="st2" points="899.2,258 869.2,258 890.4,150 864.2,150 893.6,1 945.2,1 909.4,129 938.2,129 	"/>
	<circle class="st2" cx="881.8" cy="307" r="26.5"/>
</g>
</svg>
